<svg width="1440" height="2042" viewBox="0 0 1440 2042" fill="none" xmlns="http://www.w3.org/2000/svg">
<rect x="1261.18" y="86.6405" width="57.8858" height="57.8858" transform="rotate(45 1261.18 86.6405)" fill="black"/>
<rect x="327" y="37" width="30" height="30" fill="#EFE1BC"/>
<rect x="1051" y="47" width="30" height="30" fill="#F4F4F4"/>
<rect opacity="0.795533" x="75" y="101" width="16" height="16" fill="#F4F4F4"/>
<rect x="200.361" y="514.882" width="39.8858" height="39.8858" transform="rotate(45 200.361 514.882)" fill="#F4BEBD"/>
<circle cx="816.5" cy="101.5" r="18.5" fill="#D9F4F2"/>
<circle cx="695.5" cy="535.5" r="7" fill="white" stroke="#707070"/>
<circle cx="37.5" cy="5.5" r="5" fill="white" stroke="#707070"/>
<circle cx="131.5" cy="365.5" r="5" fill="white" stroke="#707070"/>
<circle cx="1334.5" cy="52.5" r="5" fill="white" stroke="#707070"/>
<rect opacity="0.306627" x="1296.2" y="1430.02" width="60.8122" height="60.8122" transform="rotate(45 1296.2 1430.02)" fill="white"/>
<rect opacity="0.418953" x="1363" y="1808" width="31" height="31" fill="white"/>
<rect opacity="0.642623" x="1347" y="1270" width="32" height="32" fill="#F4F4F4"/>
<rect opacity="0.344495" x="41" y="1439" width="17" height="17" fill="#F4F4F4"/>
<rect opacity="0.302394" x="322.747" y="1888.91" width="41.9022" height="41.9022" transform="rotate(45 322.747 1888.91)" fill="white"/>
<rect opacity="0.0607407" x="116.706" y="1668.53" width="41.9022" height="39.8011" transform="rotate(45 116.706 1668.53)" fill="black"/>
<ellipse cx="1430" cy="1665.5" rx="19" ry="19.5" fill="#AFCBAD"/>
<path d="M88.5 2036C88.5 2039.08 86.2214 2041.5 83.5 2041.5C80.7786 2041.5 78.5 2039.08 78.5 2036C78.5 2032.92 80.7786 2030.5 83.5 2030.5C86.2214 2030.5 88.5 2032.92 88.5 2036Z" stroke="#707070"/>
<path d="M234.5 1775C234.5 1778.08 232.221 1780.5 229.5 1780.5C226.779 1780.5 224.5 1778.08 224.5 1775C224.5 1771.92 226.779 1769.5 229.5 1769.5C232.221 1769.5 234.5 1771.92 234.5 1775Z" stroke="#707070"/>
<circle cx="1302" cy="1803" r="5.5" stroke="#707070"/>
</svg>
